<?xml version="1.0" encoding="UTF-8" standalone="no"?>
<!-- Created with Inkscape (http://www.inkscape.org/) -->

<svg
   version="1.1"
   id="svg1"
   width="688.55908"
   height="688.55933"
   viewBox="0 0 688.55909 688.5593"
   sodipodi:docname="logo-laef.svg"
   inkscape:version="1.3.2 (1:1.3.2+202311252150+091e20ef0f)"
   xml:space="preserve"
   xmlns:inkscape="http://www.inkscape.org/namespaces/inkscape"
   xmlns:sodipodi="http://sodipodi.sourceforge.net/DTD/sodipodi-0.dtd"
   xmlns="http://www.w3.org/2000/svg"
   xmlns:svg="http://www.w3.org/2000/svg"><defs
     id="defs1"><clipPath
       clipPathUnits="userSpaceOnUse"
       id="clipPath323-6"><path
         d="M 0,0 H 3508.3335 V 2483.3335 H 0 Z"
         transform="matrix(0.31287076,0,0,0.31287076,-292.50348,-243.748)"
         id="path323-2" /></clipPath><clipPath
       clipPathUnits="userSpaceOnUse"
       id="clipPath325-9"><path
         d="M 0,0 H 3508.3335 V 2483.3335 H 0 Z"
         transform="matrix(0.31287076,0,0,0.31287076,-295.50342,-243.748)"
         id="path325-1" /></clipPath><clipPath
       clipPathUnits="userSpaceOnUse"
       id="clipPath327-2"><path
         d="M 0,0 H 3508.3335 V 2483.3335 H 0 Z"
         transform="matrix(0.31287076,0,0,0.31287076,-298.50336,-243.748)"
         id="path327-7" /></clipPath><clipPath
       clipPathUnits="userSpaceOnUse"
       id="clipPath329-0"><path
         d="M 0,0 H 3508.3335 V 2483.3335 H 0 Z"
         transform="matrix(0.31287076,0,0,0.31287076,-301.5034,-243.748)"
         id="path329-9" /></clipPath><clipPath
       clipPathUnits="userSpaceOnUse"
       id="clipPath331-3"><path
         d="M 0,0 H 3508.3335 V 2483.3335 H 0 Z"
         transform="matrix(0.31287076,0,0,0.31287076,-304.50344,-243.748)"
         id="path331-6" /></clipPath><clipPath
       clipPathUnits="userSpaceOnUse"
       id="clipPath333-0"><path
         d="M 0,0 H 3508.3335 V 2483.3335 H 0 Z"
         transform="matrix(0.31287076,0,0,0.31287076,-307.50348,-243.748)"
         id="path333-6" /></clipPath><clipPath
       clipPathUnits="userSpaceOnUse"
       id="clipPath335-2"><path
         d="M 0,0 H 3508.3335 V 2483.3335 H 0 Z"
         transform="matrix(0.25029661,0,0,0.25029661,-130.9096,-162.60159)"
         id="path335-6" /></clipPath><clipPath
       clipPathUnits="userSpaceOnUse"
       id="clipPath337-1"><path
         d="M 0,0 H 3508.3335 V 2483.3335 H 0 Z"
         transform="matrix(0.25029661,0,0,0.25029661,-134.90957,-162.60159)"
         id="path337-8" /></clipPath><clipPath
       clipPathUnits="userSpaceOnUse"
       id="clipPath339-7"><path
         d="M 0,0 H 3508.3335 V 2483.3335 H 0 Z"
         transform="matrix(0.25029661,0,0,0.25029661,-138.90955,-162.60159)"
         id="path339-9" /></clipPath><clipPath
       clipPathUnits="userSpaceOnUse"
       id="clipPath341-2"><path
         d="M 0,0 H 3508.3335 V 2483.3335 H 0 Z"
         transform="matrix(0.25029661,0,0,0.25029661,-142.90952,-162.60159)"
         id="path341-0" /></clipPath></defs><sodipodi:namedview
     id="namedview1"
     pagecolor="#505050"
     bordercolor="#ffffff"
     borderopacity="1"
     inkscape:showpageshadow="0"
     inkscape:pageopacity="0"
     inkscape:pagecheckerboard="1"
     inkscape:deskcolor="#505050"
     showgrid="false"
     inkscape:zoom="0.32967384"
     inkscape:cx="342.76301"
     inkscape:cy="342.76301"
     inkscape:window-width="1366"
     inkscape:window-height="652"
     inkscape:window-x="0"
     inkscape:window-y="32"
     inkscape:window-maximized="1"
     inkscape:current-layer="g1"><inkscape:grid
       id="grid304"
       units="px"
       originx="-2336.2673"
       originy="-1353.3865"
       spacingx="1"
       spacingy="0.99999996"
       empcolor="#0099e5"
       empopacity="0.30196078"
       color="#0099e5"
       opacity="0.14901961"
       empspacing="5"
       dotted="false"
       gridanglex="30"
       gridanglez="30"
       visible="false" /></sodipodi:namedview><g
     id="g1"
     inkscape:groupmode="layer"
     inkscape:label="1"
     transform="translate(-2336.2673,-1353.3865)"><g
       id="g5"><rect
         style="fill:#2c3e50;fill-opacity:1;stroke-width:0.170316;stroke-linejoin:round;paint-order:markers stroke fill"
         id="rect295"
         width="688.5592"
         height="688.5592"
         x="2336.2673"
         y="1353.3866" /><g
         id="g4"><g
           id="g3"><path
             id="path322-2"
             d="m 453.6445,-22.496 h -4.51199 v 13.2160003 c 0,2.624 -2.14402,4.7680001 -4.76801,4.7680001 h -13.02398 c -2.624,0 -4.76801,-2.1440001 -4.76801,-4.7680001 V -22.495998 h -4.51199 v 13.2159983 c 0,5.1199999 4.16,9.2799997 9.28,9.2799997 h 13.02398 c 5.12,0 9.28,-4.1599998 9.28,-9.2799997 z"
             style="fill:#f39c12;fill-opacity:1;fill-rule:nonzero;stroke:none"
             transform="matrix(2.3153697,0,0,2.3154672,1476.9659,1817.4871)"
             clip-path="url(#clipPath323-6)" /><path
             id="path324-2"
             d="m 461.11349,-17.983999 h 22.65601 v -4.511999 H 456.53751 V 0 h 4.57598 V -9.2159996 H 474.0415 V -13.728 h -12.92801 z"
             style="fill:#f39c12;fill-opacity:1;fill-rule:nonzero;stroke:none"
             transform="matrix(2.3153697,0,0,2.3154672,1483.9119,1817.4871)"
             clip-path="url(#clipPath325-9)" /><path
             id="path326-8"
             d="M 501.44449,-22.496 H 485.41248 V 0 h 16.03201 c 6.20801,0 11.23202,-5.0240002 11.23202,-11.232 0,-6.208001 -5.02398,-11.264 -11.23199,-11.264 z m 0,17.983999 h -11.456 v -13.472 h 11.456 c 3.712,0 6.72,3.007999 6.72,6.752 0,3.7119996 -3.008,6.7199995 -6.72,6.72 z"
             style="fill:#f39c12;fill-opacity:1;fill-rule:nonzero;stroke:none"
             transform="matrix(2.3153697,0,0,2.3154672,1490.8578,1817.4871)"
             clip-path="url(#clipPath327-2)" /><path
             id="path328-9"
             d="M 533.82452,-22.496 H 514.91254 V 0 h 4.57599 v -5.664 h 14.33599 c 4.64002,0 8.41602,-3.7760005 8.41602,-8.416 0,-4.639999 -3.776,-8.416 -8.41602,-8.416 z m 0,12.319999 h -14.33599 v -7.808 h 14.33599 c 2.14399,0 3.904,1.76 3.904,3.904 0,2.176 -1.76001,3.904 -3.904,3.904 z"
             style="fill:#f39c12;fill-opacity:1;fill-rule:nonzero;stroke:none"
             transform="matrix(2.3153697,0,0,2.3154672,1497.804,1817.4871)"
             clip-path="url(#clipPath329-0)" /><path
             id="path330-7"
             d="M 564.95551,-3.6800001 566.9715,0 h 5.53601 l -12.448,-22.496 h -7.67999 L 539.93152,0 h 5.53601 l 2.04797,-3.6800001 z m -2.49598,-4.4799997 h -12.44799 l 5.40802,-9.8240012 h 1.59997 z"
             style="fill:#f39c12;fill-opacity:1;fill-rule:nonzero;stroke:none"
             transform="matrix(2.3153697,0,0,2.3154672,1504.7502,1817.4871)"
             clip-path="url(#clipPath331-3)" /><path
             id="path332-3"
             d="m 597.3045,0 h 5.28003 l -3.87201,-7.2639999 c 2.112,-1.5360003 3.48798,-4.0000001 3.48798,-6.8160001 0,-4.639999 -3.776,-8.416 -8.41602,-8.416 h -19.872 V 0 h 4.57598 v -5.664 h 15.29602 c 0.15998,0 0.35199,-0.032 0.51203,-0.032 z m -18.81597,-10.176 v -7.807999 h 15.29602 c 2.17602,0 3.90399,1.76 3.90399,3.904 0,2.176 -1.72803,3.904 -3.90399,3.904 z"
             style="fill:#f39c12;fill-opacity:1;fill-rule:nonzero;stroke:none"
             transform="matrix(2.3153697,0,0,2.3154672,1511.6964,1817.4871)"
             clip-path="url(#clipPath333-0)" /></g><g
           id="g2"
           inkscape:export-filename="logo3-laef-branco.png"
           inkscape:export-xdpi="76.2"
           inkscape:export-ydpi="76.2"><path
             id="path334-6"
             d="M 419.23532,-50.400002 V 0 h 38.30399 V -11.304 H 433.4913 v -39.096002 z"
             style="fill:#ffffff;fill-opacity:1;fill-rule:nonzero;stroke:none"
             transform="matrix(2.8942121,0,0,2.894334,1178.5923,1723.7199)"
             clip-path="url(#clipPath335-2)" /><path
             id="path336-1"
             d="M 493.84082,-50.400002 H 479.80081 L 457.5528,0 h 14.544 l 3.95999,-9.7919998 4.176,-10.5120012 6.48001,-16.127998 6.48001,16.128 4.17599,10.5120001 3.96,9.79199985367431 h 14.83197 z"
             style="fill:#ffffff;fill-opacity:1;fill-rule:nonzero;stroke:none"
             transform="matrix(2.8942121,0,0,2.894334,1190.1691,1723.7199)"
             clip-path="url(#clipPath337-1)" /><path
             id="path338-2"
             d="m 560.16406,-50.400002 h -39.96002 v 11.015999 h 39.96002 z m 0,19.512 h -39.96002 v 10.656 h 39.96002 z m -39.96002,19.871999 V 0 h 39.96002 v -11.016 z"
             style="fill:#ffffff;fill-opacity:1;fill-rule:nonzero;stroke:none"
             transform="matrix(2.8942121,0,0,2.894334,1201.7459,1723.7199)"
             clip-path="url(#clipPath339-7)" /><path
             id="path340-9"
             d="m 568.57904,0 h 14.25598 v -17.280001 h 23.83197 v -11.016 h -38.08801 z m 0,-50.400002 v 11.015999 h 38.08801 v -11.015999 z"
             style="fill:#ffffff;fill-opacity:1;fill-rule:nonzero;stroke:none"
             transform="matrix(2.8942121,0,0,2.894334,1213.3227,1723.7199)"
             clip-path="url(#clipPath341-2)" /></g></g></g></g></svg>
